<?xml version="1.0" encoding="UTF-8" standalone="no"?>
<!DOCTYPE svg PUBLIC "-//W3C//DTD SVG 1.1//EN"
 "http://www.w3.org/Graphics/SVG/1.1/DTD/svg11.dtd">
<!-- Generated by graphviz version 9.0.0 (20230911.1827)
 -->
<!-- Pages: 1 -->
<svg width="1313pt" height="360pt"
 viewBox="0.00 0.00 1313.00 360.00" xmlns="http://www.w3.org/2000/svg" xmlns:xlink="http://www.w3.org/1999/xlink">
<g id="graph0" class="graph" transform="scale(1 1) rotate(0) translate(4 356)">
<polygon fill="white" stroke="none" points="-4,4 -4,-356 1309,-356 1309,4 -4,4"/>
<!-- User -->
<g id="node1" class="node">
<title>User</title>
<polygon fill="none" stroke="black" points="8,-270.25 8,-299.75 123.75,-299.75 123.75,-270.25 8,-270.25"/>
<text text-anchor="start" x="45.25" y="-280.55" font-family="Helvetica,sans-Serif" font-weight="bold" font-size="16.00">User</text>
<polygon fill="none" stroke="black" points="8,-243 8,-270.25 123.75,-270.25 123.75,-243 8,-243"/>
<text text-anchor="start" x="13" y="-252.95" font-family="Helvetica,sans-Serif" text-decoration="underline" font-size="14.00">userId</text>
<polygon fill="none" stroke="black" points="8,-215.75 8,-243 123.75,-243 123.75,-215.75 8,-215.75"/>
<text text-anchor="start" x="13" y="-224.7" font-family="Helvetica,sans-Serif" font-size="14.00">username</text>
<polygon fill="none" stroke="black" points="8,-188.5 8,-215.75 123.75,-215.75 123.75,-188.5 8,-188.5"/>
<text text-anchor="start" x="13" y="-197.45" font-family="Helvetica,sans-Serif" font-size="14.00">password</text>
<polygon fill="none" stroke="black" points="8,-161.25 8,-188.5 123.75,-188.5 123.75,-161.25 8,-161.25"/>
<text text-anchor="start" x="13" y="-170.2" font-family="Helvetica,sans-Serif" font-size="14.00">email</text>
<polygon fill="none" stroke="black" points="8,-134 8,-161.25 123.75,-161.25 123.75,-134 8,-134"/>
<text text-anchor="start" x="13" y="-142.95" font-family="Helvetica,sans-Serif" font-size="14.00">birthDate</text>
<polygon fill="none" stroke="black" points="8,-106.75 8,-134 123.75,-134 123.75,-106.75 8,-106.75"/>
<text text-anchor="start" x="13" y="-115.7" font-family="Helvetica,sans-Serif" font-size="14.00">pictureLocation</text>
<polygon fill="none" stroke="black" points="8,-79.5 8,-106.75 123.75,-106.75 123.75,-79.5 8,-79.5"/>
<text text-anchor="start" x="13" y="-88.45" font-family="Helvetica,sans-Serif" font-size="14.00">isArtist</text>
<polygon fill="none" stroke="black" points="8,-52.25 8,-79.5 123.75,-79.5 123.75,-52.25 8,-52.25"/>
<text text-anchor="start" x="13" y="-61.2" font-family="Helvetica,sans-Serif" font-size="14.00">about</text>
</g>
<!-- UserGenrePreference -->
<g id="node2" class="node">
<title>UserGenrePreference</title>
<polygon fill="none" stroke="black" points="362.5,-318.5 362.5,-348 566,-348 566,-318.5 362.5,-318.5"/>
<text text-anchor="start" x="367.5" y="-328.8" font-family="Helvetica,sans-Serif" font-weight="bold" font-size="16.00">UserGenrePreference</text>
<polygon fill="none" stroke="black" points="362.5,-291.25 362.5,-318.5 566,-318.5 566,-291.25 362.5,-291.25"/>
<text text-anchor="start" x="367.5" y="-301.2" font-family="Helvetica,sans-Serif" font-style="italic" text-decoration="underline" font-size="14.00">userId</text>
<polygon fill="none" stroke="black" points="362.5,-264 362.5,-291.25 566,-291.25 566,-264 362.5,-264"/>
<text text-anchor="start" x="367.5" y="-273.95" font-family="Helvetica,sans-Serif" font-style="italic" text-decoration="underline" font-size="14.00">genreId</text>
</g>
<!-- User&#45;&#45;UserGenrePreference -->
<g id="edge5" class="edge">
<title>User&#45;&#45;UserGenrePreference</title>
<path fill="none" stroke="#7f7f7f" stroke-dasharray="5,2" d="M131.44,-197.18C191.77,-216.96 283.01,-246.89 354.56,-270.35"/>
<text text-anchor="start" x="324.56" y="-257.05" font-family="Times,serif" font-size="14.00">0..N</text>
<text text-anchor="start" x="131.44" y="-201.13" font-family="Times,serif" font-size="14.00">1</text>
</g>
<!-- UserSongsRating -->
<g id="node3" class="node">
<title>UserSongsRating</title>
<polygon fill="none" stroke="black" points="382.38,-208.12 382.38,-237.62 546.12,-237.62 546.12,-208.12 382.38,-208.12"/>
<text text-anchor="start" x="387.38" y="-218.43" font-family="Helvetica,sans-Serif" font-weight="bold" font-size="16.00">UserSongsRating</text>
<polygon fill="none" stroke="black" points="382.38,-180.88 382.38,-208.12 546.12,-208.12 546.12,-180.88 382.38,-180.88"/>
<text text-anchor="start" x="387.38" y="-190.82" font-family="Helvetica,sans-Serif" font-style="italic" text-decoration="underline" font-size="14.00">userId</text>
<polygon fill="none" stroke="black" points="382.38,-153.62 382.38,-180.88 546.12,-180.88 546.12,-153.62 382.38,-153.62"/>
<text text-anchor="start" x="387.38" y="-163.57" font-family="Helvetica,sans-Serif" font-style="italic" text-decoration="underline" font-size="14.00">songId</text>
<polygon fill="none" stroke="black" points="382.38,-126.38 382.38,-153.62 546.12,-153.62 546.12,-126.38 382.38,-126.38"/>
<text text-anchor="start" x="387.38" y="-135.32" font-family="Helvetica,sans-Serif" font-size="14.00">rating</text>
</g>
<!-- User&#45;&#45;UserSongsRating -->
<g id="edge3" class="edge">
<title>User&#45;&#45;UserSongsRating</title>
<path fill="none" stroke="#7f7f7f" stroke-dasharray="5,2" d="M131.73,-179.97C154.77,-181.2 180.91,-182.4 204.75,-183 261.17,-184.43 324.53,-184.22 374.41,-183.62"/>
<text text-anchor="start" x="344.41" y="-170.32" font-family="Times,serif" font-size="14.00">0..N</text>
<text text-anchor="start" x="131.73" y="-166.67" font-family="Times,serif" font-size="14.00">1</text>
</g>
<!-- Playlist -->
<g id="node4" class="node">
<title>Playlist</title>
<polygon fill="none" stroke="black" points="212.75,-140.75 212.75,-170.25 310.5,-170.25 310.5,-140.75 212.75,-140.75"/>
<text text-anchor="start" x="228.62" y="-151.05" font-family="Helvetica,sans-Serif" font-weight="bold" font-size="16.00">Playlist</text>
<polygon fill="none" stroke="black" points="212.75,-113.5 212.75,-140.75 310.5,-140.75 310.5,-113.5 212.75,-113.5"/>
<text text-anchor="start" x="217.75" y="-123.45" font-family="Helvetica,sans-Serif" text-decoration="underline" font-size="14.00">playlistId</text>
<polygon fill="none" stroke="black" points="212.75,-86.25 212.75,-113.5 310.5,-113.5 310.5,-86.25 212.75,-86.25"/>
<text text-anchor="start" x="217.75" y="-96.2" font-family="Helvetica,sans-Serif" font-style="italic" font-size="14.00">createdBy</text>
<polygon fill="none" stroke="black" points="212.75,-59 212.75,-86.25 310.5,-86.25 310.5,-59 212.75,-59"/>
<text text-anchor="start" x="217.75" y="-67.95" font-family="Helvetica,sans-Serif" font-size="14.00">name</text>
<polygon fill="none" stroke="black" points="212.75,-31.75 212.75,-59 310.5,-59 310.5,-31.75 212.75,-31.75"/>
<text text-anchor="start" x="217.75" y="-40.7" font-family="Helvetica,sans-Serif" font-size="14.00">creationDate</text>
</g>
<!-- User&#45;&#45;Playlist -->
<g id="edge1" class="edge">
<title>User&#45;&#45;Playlist</title>
<path fill="none" stroke="#7f7f7f" stroke-dasharray="5,2" d="M131.66,-150.92C155.42,-141.72 182.09,-131.4 204.98,-122.54"/>
<text text-anchor="start" x="174.98" y="-109.24" font-family="Times,serif" font-size="14.00">1..N</text>
<text text-anchor="start" x="131.66" y="-137.62" font-family="Times,serif" font-size="14.00">1</text>
</g>
<!-- Song -->
<g id="node5" class="node">
<title>Song</title>
<polygon fill="none" stroke="black" points="828,-218.62 828,-248.12 919.75,-248.12 919.75,-218.62 828,-218.62"/>
<text text-anchor="start" x="851.38" y="-228.93" font-family="Helvetica,sans-Serif" font-weight="bold" font-size="16.00">Song</text>
<polygon fill="none" stroke="black" points="828,-191.38 828,-218.62 919.75,-218.62 919.75,-191.38 828,-191.38"/>
<text text-anchor="start" x="833" y="-201.32" font-family="Helvetica,sans-Serif" text-decoration="underline" font-size="14.00">songId</text>
<polygon fill="none" stroke="black" points="828,-164.12 828,-191.38 919.75,-191.38 919.75,-164.12 828,-164.12"/>
<text text-anchor="start" x="833" y="-174.07" font-family="Helvetica,sans-Serif" font-style="italic" font-size="14.00">artist</text>
<polygon fill="none" stroke="black" points="828,-136.88 828,-164.12 919.75,-164.12 919.75,-136.88 828,-136.88"/>
<text text-anchor="start" x="833" y="-145.82" font-family="Helvetica,sans-Serif" font-size="14.00">title</text>
<polygon fill="none" stroke="black" points="828,-109.62 828,-136.88 919.75,-136.88 919.75,-109.62 828,-109.62"/>
<text text-anchor="start" x="833" y="-118.58" font-family="Helvetica,sans-Serif" font-size="14.00">length</text>
<polygon fill="none" stroke="black" points="828,-82.38 828,-109.62 919.75,-109.62 919.75,-82.38 828,-82.38"/>
<text text-anchor="start" x="833" y="-91.33" font-family="Helvetica,sans-Serif" font-size="14.00">releaseDate</text>
<polygon fill="none" stroke="black" points="828,-55.12 828,-82.38 919.75,-82.38 919.75,-55.12 828,-55.12"/>
<text text-anchor="start" x="833" y="-64.08" font-family="Helvetica,sans-Serif" font-size="14.00">artLocation</text>
<polygon fill="none" stroke="black" points="828,-27.88 828,-55.12 919.75,-55.12 919.75,-27.88 828,-27.88"/>
<text text-anchor="start" x="833" y="-36.83" font-family="Helvetica,sans-Serif" font-size="14.00">fileLocation</text>
</g>
<!-- User&#45;&#45;Song -->
<g id="edge2" class="edge">
<title>User&#45;&#45;Song</title>
<path fill="none" stroke="#7f7f7f" stroke-dasharray="5,2" d="M131.55,-73.87C164.54,-35.05 208.71,0 260.62,0 260.62,0 260.62,0 679.5,0 734.56,0 784.78,-37.53 820.24,-73.44"/>
<text text-anchor="start" x="790.24" y="-60.14" font-family="Times,serif" font-size="14.00">0..N</text>
<text text-anchor="start" x="131.55" y="-60.57" font-family="Times,serif" font-size="14.00">1</text>
</g>
<!-- Genre -->
<g id="node7" class="node">
<title>Genre</title>
<polygon fill="none" stroke="black" points="1206.75,-272.5 1206.75,-302 1297,-302 1297,-272.5 1206.75,-272.5"/>
<text text-anchor="start" x="1224.88" y="-282.8" font-family="Helvetica,sans-Serif" font-weight="bold" font-size="16.00">Genre</text>
<polygon fill="none" stroke="black" points="1206.75,-245.25 1206.75,-272.5 1297,-272.5 1297,-245.25 1206.75,-245.25"/>
<text text-anchor="start" x="1211.75" y="-255.2" font-family="Helvetica,sans-Serif" text-decoration="underline" font-size="14.00">genreId</text>
<polygon fill="none" stroke="black" points="1206.75,-218 1206.75,-245.25 1297,-245.25 1297,-218 1206.75,-218"/>
<text text-anchor="start" x="1211.75" y="-226.95" font-family="Helvetica,sans-Serif" font-size="14.00">genreName</text>
</g>
<!-- UserGenrePreference&#45;&#45;Genre -->
<g id="edge6" class="edge">
<title>UserGenrePreference&#45;&#45;Genre</title>
<path fill="none" stroke="#7f7f7f" stroke-dasharray="5,2" d="M573.69,-301.41C635.09,-299.19 713.33,-297 783,-297 783,-297 783,-297 1064.25,-297 1110.49,-297 1161.97,-285.93 1199.13,-275.91"/>
<text text-anchor="start" x="1190.13" y="-262.61" font-family="Times,serif" font-size="14.00">1</text>
<text text-anchor="start" x="573.69" y="-288.11" font-family="Times,serif" font-size="14.00">0..N</text>
</g>
<!-- UserSongsRating&#45;&#45;Song -->
<g id="edge4" class="edge">
<title>UserSongsRating&#45;&#45;Song</title>
<path fill="none" stroke="#7f7f7f" stroke-dasharray="5,2" d="M554.05,-178.94C609.67,-176.3 682.72,-171.51 747,-163 771.19,-159.8 797.71,-154.76 820.15,-150.04"/>
<text text-anchor="start" x="811.15" y="-153.99" font-family="Times,serif" font-size="14.00">1</text>
<text text-anchor="start" x="554.05" y="-165.64" font-family="Times,serif" font-size="14.00">0..N</text>
</g>
<!-- PlaylistSong -->
<g id="node6" class="node">
<title>PlaylistSong</title>
<polygon fill="none" stroke="black" points="618,-120.12 618,-149.62 739,-149.62 739,-120.12 618,-120.12"/>
<text text-anchor="start" x="623" y="-130.43" font-family="Helvetica,sans-Serif" font-weight="bold" font-size="16.00">PlaylistSong</text>
<polygon fill="none" stroke="black" points="618,-92.88 618,-120.12 739,-120.12 739,-92.88 618,-92.88"/>
<text text-anchor="start" x="623" y="-102.83" font-family="Helvetica,sans-Serif" font-style="italic" text-decoration="underline" font-size="14.00">playlistId</text>
<polygon fill="none" stroke="black" points="618,-65.62 618,-92.88 739,-92.88 739,-65.62 618,-65.62"/>
<text text-anchor="start" x="623" y="-75.58" font-family="Helvetica,sans-Serif" font-style="italic" text-decoration="underline" font-size="14.00">songId</text>
<polygon fill="none" stroke="black" points="618,-38.38 618,-65.62 739,-65.62 739,-38.38 618,-38.38"/>
<text text-anchor="start" x="623" y="-47.33" font-family="Helvetica,sans-Serif" font-size="14.00">addedOnDate</text>
</g>
<!-- Playlist&#45;&#45;PlaylistSong -->
<g id="edge7" class="edge">
<title>Playlist&#45;&#45;PlaylistSong</title>
<path fill="none" stroke="#7f7f7f" stroke-dasharray="5,2" d="M318.15,-100.06C393.77,-98.79 529.02,-96.51 610.29,-95.13"/>
<text text-anchor="start" x="580.29" y="-99.08" font-family="Times,serif" font-size="14.00">0..N</text>
<text text-anchor="start" x="318.15" y="-86.76" font-family="Times,serif" font-size="14.00">1</text>
</g>
<!-- SongGenre -->
<g id="node8" class="node">
<title>SongGenre</title>
<polygon fill="none" stroke="black" points="1008.75,-218.5 1008.75,-248 1117.75,-248 1117.75,-218.5 1008.75,-218.5"/>
<text text-anchor="start" x="1013.75" y="-228.8" font-family="Helvetica,sans-Serif" font-weight="bold" font-size="16.00">SongGenre</text>
<polygon fill="none" stroke="black" points="1008.75,-191.25 1008.75,-218.5 1117.75,-218.5 1117.75,-191.25 1008.75,-191.25"/>
<text text-anchor="start" x="1013.75" y="-201.2" font-family="Helvetica,sans-Serif" font-style="italic" text-decoration="underline" font-size="14.00">songId</text>
<polygon fill="none" stroke="black" points="1008.75,-164 1008.75,-191.25 1117.75,-191.25 1117.75,-164 1008.75,-164"/>
<text text-anchor="start" x="1013.75" y="-173.95" font-family="Helvetica,sans-Serif" font-style="italic" text-decoration="underline" font-size="14.00">genreId</text>
</g>
<!-- Song&#45;&#45;SongGenre -->
<g id="edge9" class="edge">
<title>Song&#45;&#45;SongGenre</title>
<path fill="none" stroke="#7f7f7f" stroke-dasharray="5,2" d="M927.57,-157.12C950.41,-165.41 977.3,-175.17 1001.02,-183.78"/>
<text text-anchor="start" x="971.02" y="-170.48" font-family="Times,serif" font-size="14.00">0..N</text>
<text text-anchor="start" x="927.57" y="-143.82" font-family="Times,serif" font-size="14.00">1</text>
</g>
<!-- PlaylistSong&#45;&#45;Song -->
<g id="edge8" class="edge">
<title>PlaylistSong&#45;&#45;Song</title>
<path fill="none" stroke="#7f7f7f" stroke-dasharray="5,2" d="M746.86,-109.33C770.84,-114.78 797.48,-120.84 820.06,-125.98"/>
<text text-anchor="start" x="811.06" y="-112.68" font-family="Times,serif" font-size="14.00">1</text>
<text text-anchor="start" x="746.86" y="-96.03" font-family="Times,serif" font-size="14.00">0..N</text>
</g>
<!-- SongGenre&#45;&#45;Genre -->
<g id="edge10" class="edge">
<title>SongGenre&#45;&#45;Genre</title>
<path fill="none" stroke="#7f7f7f" stroke-dasharray="5,2" d="M1125.62,-223.76C1149.31,-230.61 1176.12,-238.37 1198.85,-244.95"/>
<text text-anchor="start" x="1189.85" y="-231.65" font-family="Times,serif" font-size="14.00">1</text>
<text text-anchor="start" x="1125.62" y="-210.46" font-family="Times,serif" font-size="14.00">0..N</text>
</g>
</g>
</svg>
